# xmcd CD database file
#
# Track frame offsets:
#	150
#	26558
#	58666
#	78686
#	123779
#	132608
#	151972
#	154808
#	203490
#	278837
#
# Disc length: 3752 seconds
#
# Revision: 0
# Processed by: cddbd v1.5.2PL0 Copyright (c) Steve Scherf et al.
# Submitted via: CDex 1.70beta2
#
DISCID=840ea60a
DTITLE=Buddy Guy - I'll Play the Blues for You...Live
DYEAR=2016
DGENRE=Blues
TTITLE0=Mary Had a Little Lamb
TTITLE1=I Just Wanna Make Love to You/You Can't Fool a Fool
TTITLE2=I'll Play the Blues for You
TTITLE3=Everything's Gonna Be Alright/Rock Me, Baby/Watch Yourself
TTITLE4=Voodoo Chile
TTITLE5=Hoochie Coochie Man
TTITLE6=Cold Shot
TTITLE7=Strange Brew/Mustang Sally
TTITLE8=Knock on Wood/Johnny B Goode
TTITLE9=DJ (Outro)
EXTD=YEAR: 2016
EXTT0=
EXTT1=
EXTT2=
EXTT3=
EXTT4=
EXTT5=
EXTT6=
EXTT7=
EXTT8=
EXTT9=
PLAYORDER=
